<svg  fill="currentColor" viewBox="0 0 50 50" xmlns="http://www.w3.org/2000/svg">
<path d="m25.984 0.98633a1.0001 1.0001 0 0 0-0.88477 0.56641l-13.93 21.891a1.001 1.001 0 0 0-0.0625 0.10547 1.001 1.001 0 0 0-0.001953 0.001953 1.0001 1.0001 0 0 0-0.039063 0.089844 1.001 1.001 0 0 0-0.052734 0.19336 1.0001 1.0001 0 0 0-0.013672 0.19922 1.001 1.001 0 0 0 0 0.001953 1.0001 1.0001 0 0 0 0.007812 0.097656 1.001 1.001 0 0 0 0.003907 0.019532 1.0001 1.0001 0 0 0 0.035156 0.14648 1.0001 1.0001 0 0 0 0.007813 0.027344 1.001 1.001 0 0 0 0 0.001953 1.0001 1.0001 0 0 0 0.037109 0.091797 1.001 1.001 0 0 0 0 0.001953 1.0001 1.0001 0 0 0 0.046875 0.085937 1.001 1.001 0 0 0 0 0.001954 1.0001 1.0001 0 0 0 0.054687 0.082031 1.001 1.001 0 0 0 0.029297 0.035156 1.0001 1.0001 0 0 0 0.035156 0.042969 1.0001 1.0001 0 0 0 0.06836 0.070312 1.001 1.001 0 0 0 0.001953 0.001954 1.001 1.001 0 0 0 0.1582 0.11719 1.001 1.001 0 0 0 0.001953 0.001953 1.0001 1.0001 0 0 0 0.015625 0.007813 1.001 1.001 0 0 0 0.001953 0.001953l13.873 7.9277a1.0001 1.0001 0 0 0 1.2344 0.003906l13.861-7.9219a1.001 1.001 0 0 0 0.021485-0.011718 1.0001 1.0001 0 0 0 0.064453-0.041016 1.001 1.001 0 0 0 0.019531-0.013672 1.0001 1.0001 0 0 0 0.013672-0.011719 1.001 1.001 0 0 0 0.060547-0.044922 1.001 1.001 0 0 0 0.003906-0.003906 1.0001 1.0001 0 0 0 0.011719-0.009765 1.001 1.001 0 0 0 0.060547-0.060547 1.001 1.001 0 0 0 0.064453-0.076172 1.001 1.001 0 0 0 0.054687-0.080078 1.001 1.001 0 0 0 0.001953-0.001953 1.0001 1.0001 0 0 0 0.001954-0.00586 1.001 1.001 0 0 0 0.046875-0.080078 1.001 1.001 0 0 0 0-0.001953 1.0001 1.0001 0 0 0 0.03125-0.070312 1.001 1.001 0 0 0 0.007812-0.021485 1.0001 1.0001 0 0 0 0.007813-0.023437 1.001 1.001 0 0 0 0.019531-0.06836 1.001 1.001 0 0 0 0.001953-0.003906 1.0001 1.0001 0 0 0 0.001953-0.005859 1.001 1.001 0 0 0 0.017578-0.091797 1.0001 1.0001 0 0 0 0.009766-0.076172 1.001 1.001 0 0 0 0-0.007813 1.0001 1.0001 0 0 0 0.001953-0.091797 1.0001 1.0001 0 0 0-0.003906-0.058593 1.001 1.001 0 0 0-0.00586-0.0625 1.001 1.001 0 0 0 0-0.001953 1.0001 1.0001 0 0 0-0.001953-0.009766 1.001 1.001 0 0 0-0.017578-0.083984 1.001 1.001 0 0 0 0-0.003907 1.0001 1.0001 0 0 0-0.021484-0.074218 1.001 1.001 0 0 0-0.007813-0.021485 1.0001 1.0001 0 0 0-0.009765-0.023437 1.001 1.001 0 0 0-0.027344-0.066407 1.001 1.001 0 0 0-0.001953-0.001953 1.0001 1.0001 0 0 0-0.001953-0.005859 1.001 1.001 0 0 0-0.046875-0.082031 1.0001 1.0001 0 0 0-0.00586-0.009766 1.001 1.001 0 0 0-0.003906-0.007812l-0.03125-0.046875-13.916-21.869a1.0001 1.0001 0 0 0-0.91211-0.56055zm-0.98438 4.4492v11.904l-10.416 4.4629 10.416-16.367zm2 0 10.416 16.367-10.416-4.4629v-11.904zm-2 14.08v10.76l-10.758-6.1465 10.758-4.6133zm2 0 10.758 4.6133-10.758 6.1465v-10.76zm13.008 8.4824a1.0001 1.0001 0 0 0-0.50391 0.13281l-13.504 7.7168-13.504-7.7168a1.0001 1.0001 0 0 0-0.47656-0.13086 1.0001 1.0001 0 0 0-0.82422 1.5938l13.934 18.91a1.0001 1.0001 0 0 0 1.7402 0.001953l13.936-18.912a1.0001 1.0001 0 0 0-0.79688-1.5957zm-24.395 4.2188 9.3867 5.3652v7.375l-9.3867-12.74zm20.773 0-9.3867 12.74v-7.375l9.3867-5.3652z"/>
</svg>
