<svg version="1.1" viewBox="0 0 124.95 200" xmlns="http://www.w3.org/2000/svg">
 <path d="m62.406 0a4.1647 4.1647 0 0 0-3.6846 2.3588l-58.011 91.163a4.1687 4.1687 0 0 0-0.26028 0.43924 4.1687 4.1687 0 0 0-0.008328 0.0084 4.1647 4.1647 0 0 0-0.16266 0.37412 4.1687 4.1687 0 0 0-0.21959 0.80523 4.1647 4.1647 0 0 0-0.056927 0.82963 4.1687 4.1687 0 0 0 0 0.0084 4.1647 4.1647 0 0 0 0.032482 0.40672 4.1687 4.1687 0 0 0 0.016241 0.08132 4.1647 4.1647 0 0 0 0.14642 0.60999 4.1647 4.1647 0 0 0 0.032482 0.11384 4.1687 4.1687 0 0 0 0 0.0084 4.1647 4.1647 0 0 0 0.15454 0.38228 4.1687 4.1687 0 0 0 0 0.0084 4.1647 4.1647 0 0 0 0.19519 0.35788 4.1687 4.1687 0 0 0 0 0.0084 4.1647 4.1647 0 0 0 0.22775 0.3416 4.1687 4.1687 0 0 0 0.12202 0.14644 4.1647 4.1647 0 0 0 0.14642 0.17896 4.1647 4.1647 0 0 0 0.28468 0.2928 4.1687 4.1687 0 0 0 0.00833 0.0084 4.1687 4.1687 0 0 0 0.65879 0.48803 4.1687 4.1687 0 0 0 0.00833 0.0084 4.1647 4.1647 0 0 0 0.065091 0.0324 4.1687 4.1687 0 0 0 0.00833 0.0084l57.771 33.014a4.1647 4.1647 0 0 0 5.1407 0.0164l57.723-32.99a4.1687 4.1687 0 0 0 0.0894-0.0488 4.1647 4.1647 0 0 0 0.2684-0.17084 4.1687 4.1687 0 0 0 0.0813-0.05692 4.1647 4.1647 0 0 0 0.0569-0.0488 4.1687 4.1687 0 0 0 0.25216-0.18708 4.1687 4.1687 0 0 0 0.0164-0.0164 4.1647 4.1647 0 0 0 0.0488-0.0408 4.1687 4.1687 0 0 0 0.25216-0.25216 4.1687 4.1687 0 0 0 0.2684-0.3172 4.1687 4.1687 0 0 0 0.22776-0.33348 4.1687 4.1687 0 0 0 8e-3 -0.0084 4.1647 4.1647 0 0 0 8e-3 -0.0244 4.1687 4.1687 0 0 0 0.19519-0.33348 4.1687 4.1687 0 0 0 0-0.0084 4.1647 4.1647 0 0 0 0.13012-0.2928 4.1687 4.1687 0 0 0 0.0324-0.08948 4.1647 4.1647 0 0 0 0.0324-0.0976 4.1687 4.1687 0 0 0 0.0813-0.28468 4.1687 4.1687 0 0 0 8e-3 -0.0164 4.1647 4.1647 0 0 0 8e-3 -0.0244 4.1687 4.1687 0 0 0 0.0732-0.38232 4.1647 4.1647 0 0 0 0.0408-0.3172 4.1687 4.1687 0 0 0 0-0.0324 4.1647 4.1647 0 0 0 8e-3 -0.38232 4.1647 4.1647 0 0 0-0.0164-0.244 4.1687 4.1687 0 0 0-0.0244-0.26028 4.1687 4.1687 0 0 0 0-0.0084 4.1647 4.1647 0 0 0-8e-3 -0.0408 4.1687 4.1687 0 0 0-0.0732-0.34972 4.1687 4.1687 0 0 0 0-0.0164 4.1647 4.1647 0 0 0-0.0894-0.30908 4.1687 4.1687 0 0 0-0.0324-0.08948 4.1647 4.1647 0 0 0-0.0408-0.0976 4.1687 4.1687 0 0 0-0.11384-0.27656 4.1687 4.1687 0 0 0-8e-3 -0.0084 4.1647 4.1647 0 0 0-8e-3 -0.0244 4.1687 4.1687 0 0 0-0.19519-0.3416 4.1647 4.1647 0 0 0-0.0244-0.0408 4.1687 4.1687 0 0 0-0.0164-0.0324l-0.1295-0.19537-57.951-91.071a4.1647 4.1647 0 0 0-3.7984-2.3344zm-4.0995 18.528v49.571l-43.375 18.585 43.375-68.159zm8.3287 0 43.375 68.159-43.375-18.585v-49.571zm-8.3287 58.635v44.807l-44.799-25.596 44.799-19.212zm8.3287 0 44.799 19.212-44.799 25.596v-44.807zm54.171 35.324a4.1647 4.1647 0 0 0-2.0985 0.55307l-56.235 32.136-56.235-32.136a4.1647 4.1647 0 0 0-1.9846-0.54495 4.1647 4.1647 0 0 0-3.4324 6.6371l58.027 78.751a4.1647 4.1647 0 0 0 7.2471 8e-3l58.035-78.759a4.1647 4.1647 0 0 0-3.3185-6.6451zm-101.59 17.569 39.09 22.343v30.712zm86.507 0-39.09 53.055v-30.712z" stroke-width="4.1644"/>
</svg>
