<svg version="1.0" viewBox="0 0 252.49 200" xmlns="http://www.w3.org/2000/svg">
 <g transform="matrix(.13333 0 0 -.13333 -.00043867 950.54)" stroke-width=".2104">
  <path d="m903.69 7128c-1.052-0.4208-9.6786-2.1041-18.936-3.7873-20.409-3.7873-33.454-7.1538-42.502-10.941-3.5769-1.6833-7.5746-2.9457-9.0474-2.9457s-5.0497-1.2624-7.9954-2.9457c-6.5226-3.156-31.561-14.939-36.19-16.832-6.3121-2.5249-33.034-20.62-46.289-31.35-28.194-22.724-52.18-49.656-71.748-80.375-9.4682-14.939-27.984-51.128-29.877-58.913-2.5249-9.6786-7.5746-21.04-9.2578-21.461-1.2624-0.4209-5.8913 2.9456-10.31 7.3641-14.308 14.308-43.554 34.927-62.911 44.395-10.52 5.2601-21.461 10.52-24.617 12.204-2.9457 1.4728-7.5746 2.7352-10.099 2.7352-2.5249 0-6.5225 1.052-9.0474 2.5249-2.5249 1.4728-9.2578 3.156-15.149 3.9977-5.6809 0.8416-16.622 2.5248-24.197 3.7872-7.5746 1.2625-20.199 2.1041-28.405 2.1041-22.934 0-78.271-10.941-83.951-16.622-1.052-1.052-3.5769-2.104-5.6809-2.104-1.8936 0-7.785-2.3145-13.255-5.2601-5.2601-2.9457-14.097-7.5746-19.568-10.52-13.887-7.5745-27.773-18.305-45.868-35.769-13.887-13.466-31.982-35.348-35.348-43.133-0.84162-1.6832-3.3665-5.8913-5.6809-9.4682-2.3144-3.3665-4.8393-7.785-5.4705-9.4682-0.84161-1.6832-3.9977-9.0474-7.3642-16.412-3.3665-7.1537-6.1017-14.308-6.1017-15.991 0-1.4729-1.4728-5.6809-3.1561-8.837-1.6832-3.3665-3.1561-8.6266-3.1561-11.572 0-2.9456-1.4728-10.099-3.1561-15.78-2.5248-8.4162-3.1561-27.984-3.1561-111.72 0-71.958 0.63122-103.1 2.5249-107.31 1.2624-3.1561 2.9457-11.152 3.7873-17.464 1.8936-13.887 3.9977-20.199 17.043-49.445 9.6786-21.882 32.823-53.864 49.866-69.223 2.7353-2.5249 9.2578-8.4162 14.518-13.466 5.2601-4.8393 10.31-8.837 11.151-8.837 1.052 0 4.6289-2.5248 8.2058-5.4705l6.5225-5.4705v-45.868l-7.785-3.3665c-4.4185-1.8937-12.203-4.2081-17.464-5.0497-9.2578-1.4729-20.199-3.9977-41.029-9.4682-22.934-6.1018-29.877-7.785-38.925-9.2578-19.778-3.5769-52.812-14.518-65.225-21.672-1.6832-0.8416-4.6289-2.3145-6.3121-2.9457s-5.0497-2.104-7.3642-3.3664c-2.104-1.2625-8.4162-4.6289-13.676-7.3642-5.2601-2.7353-11.783-7.1538-14.728-9.6786-2.9457-2.5249-9.4682-7.9954-14.728-11.993-22.513-17.043-54.284-55.968-65.857-80.795-12.203-26.09-15.36-35.558-22.934-66.488-1.6832-6.3122-2.7353-59.755-3.1561-161.17l-0.63121-151.91 9.2578-10.099 9.2578-10.31 153.17-0.6312c138.45-0.6313 153.6-0.8417 157.17-3.9977 3.3665-3.1561 3.7873-7.785 3.5769-53.022 0-27.353-0.2104-54.284 0-59.755 0-9.4682 0.84162-10.941 10.52-20.62l10.52-10.31h215.66c204.51 0 215.88 0.2104 221.77 3.7873 14.097 8.6266 21.461 25.669 17.043 39.556-3.7873 11.783-9.2578 18.726-18.305 23.144-7.3642 3.5769-14.939 3.9977-92.157 4.6289-55.126 0.4208-85.003 1.4728-86.687 2.9456-2.104 1.6833-2.7353 19.568-2.7353 80.375-0.2104 81.637-1.4728 95.524-9.2578 103.52-9.0474 9.0474-14.728 11.362-28.194 11.362-11.151 0-14.518-0.8416-20.62-5.6809-14.728-11.151-14.308-9.0474-15.57-104.78l-1.052-86.266-62.911-0.6312c-45.237-0.4208-63.542 0.2104-65.857 1.8936-2.3144 2.1041-2.7353 16.412-2.104 84.793 0.84161 83.531 3.5769 129.19 9.0474 141.81 1.6832 3.7873 2.9457 9.2578 2.9457 11.993s1.4728 8.6266 3.3665 13.045 4.8393 10.941 6.1017 14.308c7.1538 17.253 12.624 27.984 17.043 34.086 2.7353 3.5769 5.0497 7.1538 5.0497 7.785 0 3.1561 18.726 27.773 31.982 42.081s41.239 37.873 50.076 41.87c1.6832 0.8416 6.1017 3.3665 9.4682 5.4706 11.993 7.7849 35.138 19.147 38.714 19.147 1.8936 0 5.4705 1.4728 7.785 3.156 2.104 1.6833 5.8913 3.1561 8.2058 3.1561 2.104 0 7.785 1.2624 12.624 2.9457 9.2578 3.156 24.828 7.1537 37.873 9.889 4.6289 0.8416 12.414 2.5248 17.464 3.7873 4.8393 1.2624 12.835 3.3664 17.884 4.6289 4.8393 1.2624 12.624 2.9456 17.253 3.9977 29.036 6.5225 37.873 8.837 41.239 10.52 2.104 1.2624 6.3121 2.104 9.6786 2.104 3.1561 0 10.099 1.2625 15.36 2.9457 26.721 8.4162 34.506 7.785 37.242-2.5249 0.63121-2.7352 3.7873-10.099 7.1538-16.622 3.3665-6.5226 6.1017-12.835 6.1017-14.097 0-1.2625 2.9457-8.4162 6.5225-15.991 6.3121-13.256 9.2578-20.199 15.36-34.086 3.3665-7.785 8.837-20.199 17.043-38.504 3.1561-6.9433 7.1538-15.991 8.837-19.988 5.4705-12.624 8.4162-19.568 15.149-34.296 3.5769-7.7849 6.5225-14.728 6.5225-15.57s2.9457-7.785 6.5225-15.36c3.5769-7.5746 7.785-17.043 9.6786-21.04 1.6832-3.9977 4.4185-10.099 6.1017-13.256 1.6832-3.3665 2.9457-6.9433 2.9457-7.9954 0-4.6289 11.151-19.147 19.357-25.038 12.414-9.0474 25.249-8.837 37.873 0.6312 8.6266 6.5225 15.36 17.884 28.405 47.762 1.6832 3.9977 4.4185 10.1 6.1017 13.256 1.6832 3.3665 2.9457 7.1538 2.9457 8.837 0 1.4729 1.4728 3.7873 3.156 5.2601 1.6833 1.4729 3.1561 3.9977 3.1561 5.8914 0 1.6832 2.5249 8.4162 5.4705 14.939 7.9954 17.464 13.466 29.457 22.934 51.76 6.733 15.57 10.099 23.355 11.993 26.301 0.8416 1.6833 2.3144 4.6289 2.9457 6.3122 0.6312 1.6832 2.5248 5.8913 4.208 9.0474 1.4729 3.3664 2.9457 6.9433 2.9457 7.9953 0 1.0521 2.9457 8.4162 6.5226 16.201 3.7872 7.785 7.9953 17.043 9.4682 20.409 1.4728 3.5769 5.6809 12.624 9.0474 20.62 3.5768 7.785 6.5225 14.939 6.5225 16.201 0 1.0521 1.8936 3.7873 4.2081 5.8914 4.6289 4.2081 10.31 3.7873 31.561-2.9457 5.2601-1.6832 12.414-2.9457 15.78-2.9457 3.5769-0.2104 8.6266-1.4728 11.572-3.156 2.9456-1.6833 7.9954-2.9457 11.362-3.1561 5.8914 0 18.516-3.1561 39.346-9.6786 5.4705-1.6832 11.993-2.9457 14.518-2.9457 2.5249 0 9.0474-1.2624 14.518-2.9456 5.2601-1.6833 17.253-4.6289 26.511-6.5226 9.2578-2.104 19.147-4.6289 22.092-5.6809 2.9457-1.2624 8.6266-2.9457 12.624-3.9977 15.149-3.3665 37.662-13.256 56.809-24.828 3.9977-2.3145 9.2578-5.2602 11.572-6.3122 2.3144-1.052 6.1017-3.7873 8.4162-5.8913 2.3144-2.1041 7.9953-6.733 12.624-10.099 4.6289-3.5769 10.941-8.837 14.308-11.993 8.4162-8.2058 39.346-44.606 39.346-46.289 0-0.8416 4.2081-7.5746 9.4682-15.149 5.2601-7.785 9.4682-14.728 9.4682-15.78s1.6833-5.0497 3.5769-9.0474c6.3121-12.835 6.9434-14.308 11.362-28.405 2.3144-7.9954 5.8913-18.936 7.7849-24.828 2.9457-9.2578 3.3665-23.565 3.5769-117.83v-107.31h-126.24l-1.052 86.266c-1.2624 95.734-0.8416 93.63-15.57 104.78-6.1018 4.8393-9.4682 5.6809-20.62 5.6809-13.466 0-19.147-2.3144-28.194-11.362-7.785-7.9954-9.0474-21.882-9.2578-103.52 0-57.651-0.6312-78.481-2.5249-80.375-1.8936-1.8936-24.407-2.5248-88.16-2.5248-47.551 0-90.264-0.8416-96.365-2.1041-19.778-3.7872-29.457-15.57-29.667-36.19 0-11.572 0.4209-12.203 10.31-22.513l10.52-10.731h222.82c247.44 0 230.18-1.052 241.97 14.097l5.6809 7.5746 1.2624 62.28c0.6313 34.296 1.2625 62.49 1.4729 62.7s70.486 0.6313 156.33 1.0521l155.7 0.6312 11.572 12.203 11.362 12.414v148.12c0 128.14-0.4208 148.12-3.156 148.12-1.8937 0-3.3665 2.9457-4.2081 7.9954-0.6313 4.2081-2.5249 11.993-4.2081 17.253-1.6833 5.2601-3.1561 11.151-3.1561 13.045 0 2.1041-1.4728 7.1538-3.3665 11.572-7.3641 17.464-9.0474 21.04-12.835 29.246-11.572 24.828-43.343 63.963-65.857 80.795-5.2601 3.9977-11.783 9.2578-14.308 11.993-2.7353 2.5248-12.835 8.6266-22.092 13.256-9.4682 4.8393-18.726 9.4682-20.409 10.31-15.36 7.9954-45.868 17.884-65.226 21.461-9.0474 1.4728-15.991 3.156-38.925 9.2578-20.83 5.4705-31.771 7.9953-41.029 9.4682-5.2601 0.8416-13.045 3.156-17.253 5.0497l-7.9954 3.3665v45.868l6.5226 5.4705c3.5768 2.9457 7.1537 5.4705 8.2057 5.4705 0.8417 0 5.8914 3.9977 11.152 8.837 5.2601 5.0497 11.783 10.941 14.518 13.466 17.043 15.36 40.187 47.341 49.866 69.223 13.045 29.246 15.149 35.558 17.043 49.445 0.8416 6.3121 2.5248 14.308 3.7873 17.464 1.8936 4.2081 2.5248 35.348 2.5248 107.31 0 83.741-0.6312 103.31-3.1561 111.72-1.6832 5.6809-3.156 12.835-3.156 15.78 0 2.9457-1.4729 8.2058-3.1561 11.572-1.6832 3.1561-3.1561 7.3641-3.1561 8.837 0 1.6832-2.7352 8.837-6.1017 15.991-3.3665 7.3642-6.5225 14.728-7.3642 16.412-0.6312 1.6832-3.156 6.1017-5.4705 9.4682-2.3144 3.5769-4.8393 7.785-5.6809 9.4682-3.3665 7.785-21.461 29.667-35.348 43.133-18.095 17.464-31.982 28.194-45.658 35.769-5.6809 2.9457-14.518 7.5746-19.778 10.52-5.4705 2.9456-11.362 5.2601-13.256 5.2601-2.1041 0-4.6289 1.052-5.6809 2.104-3.1561 3.1561-21.461 7.9954-48.183 12.835-17.464 3.1561-28.615 3.9977-45.237 3.1561-20.83-0.8416-28.194-2.1041-50.497-7.5746-5.2601-1.2624-12.835-3.1561-16.832-3.9977-3.9976-0.8416-9.2578-2.5248-11.572-3.7873-2.3145-1.052-12.624-6.3121-23.144-11.362-18.936-9.4682-49.024-30.298-61.649-43.343-7.7849-7.7849-12.624-8.837-14.308-3.156-14.939 47.131-41.45 90.895-77.218 127.29-34.717 35.558-66.909 57.44-110.88 75.114-6.3121 2.5249-14.728 5.8913-18.516 7.5746-3.7873 1.6832-8.6266 2.9456-10.941 2.9456s-7.7849 1.2625-11.993 2.9457c-17.884 6.5225-45.447 9.6786-82.689 9.4682-20.199 0-37.662-0.4208-38.925-1.052zm70.906-73.221c13.466-1.6833 25.669-3.7873 27.142-4.6289 1.6832-0.8416 6.5225-2.3145 11.362-3.1561 15.991-2.9457 58.913-21.672 64.384-28.405 1.2625-1.6832 3.3665-2.9457 4.4185-2.9457 5.4705 0 40.608-31.35 56.599-50.497 28.825-34.506 45.447-70.696 55.547-120.56 3.1561-16.412 4.2081-39.556 1.8936-42.081-1.2624-1.2625-10.731 3.3664-22.934 11.362-3.3665 2.104-8.2058 4.8393-10.52 6.1017-2.3145 1.2625-6.9434 3.9977-10.52 6.1018-3.3665 2.3144-10.941 6.7329-16.832 9.6786-5.6809 3.156-13.466 7.9954-17.253 10.731-3.5769 2.7353-7.5746 5.0497-8.837 5.0497s-5.6809 2.5249-10.099 5.4705c-4.4185 2.9457-9.889 6.3122-12.204 7.3642-2.3144 1.052-6.9433 3.7873-10.52 5.8913-16.412 10.731-25.249 13.887-37.031 13.676-6.3122-0.2104-13.256-1.052-15.149-2.104-1.8937-1.2624-14.308-12.624-27.353-25.669-13.256-13.045-24.617-23.565-25.249-23.565-0.84162 0-6.9434-3.9977-13.466-8.837-36.4-26.721-83.531-44.395-134.24-49.866-29.457-3.3664-125.61-3.156-128.98 0.2104-7.785 7.785 1.4728 87.739 13.256 116.35 8.2058 19.778 17.464 38.504 22.724 45.658 3.1561 4.4185 5.6809 8.4162 5.6809 9.2578 0 3.1561 20.199 26.721 35.979 42.081 16.832 16.201 41.45 34.296 54.495 39.977 1.6832 0.6312 8.837 3.9977 15.78 7.1537 22.303 10.31 28.405 12.624 33.665 12.624 2.7353 0 7.5746 1.052 10.941 2.5249 5.6809 2.3144 40.608 7.1537 55.336 7.5745 3.9977 0.2104 18.516-1.052 31.982-2.5248zm-486.03-156.12c3.1561-1.6833 7.785-2.9457 10.31-2.9457 4.2081 0 19.147-6.733 43.554-19.568 11.151-5.8914 45.027-41.45 51.76-54.074 20.83-39.556 20.83-39.977 1.4728-50.076-23.986-12.204-69.644-30.298-86.476-34.086-3.9977-0.8416-10.099-2.7352-13.256-3.9977-3.3665-1.2624-8.6266-2.3144-11.783-2.3144-3.3665 0-9.2578-1.2624-13.045-2.9457-3.9977-1.4728-16.622-3.3664-28.194-3.9977-11.572-0.8416-24.407-2.3144-28.405-3.5768-9.2578-2.7353-130.24-2.7353-134.66 0-2.5249 1.4728-2.5249 4.4185-0.42081 19.357 1.4728 9.6786 2.5248 20.409 2.5248 23.986 0 13.466 18.726 56.388 30.719 70.275 3.3665 3.9976 8.2058 9.889 10.52 12.835 6.1017 8.2058 30.298 27.563 40.818 33.034 5.2601 2.5248 10.941 5.4705 12.624 6.5225 12.624 6.733 17.884 8.6266 22.934 8.6266 3.1561 0 6.9434 1.2624 8.2058 2.7353 5.6809 5.4705 69.854 5.6809 80.795 0.2104zm992.06 0c2.5248-1.6833 6.9433-2.9457 9.889-2.9457 4.4185 0 9.6786-2.1041 22.303-8.6266 1.6832-1.052 7.3641-3.9977 12.624-6.5225 10.52-5.4706 34.717-24.828 40.818-33.034 2.3145-2.9456 7.1538-8.837 10.52-12.835 11.993-13.887 30.719-56.809 30.719-70.275 0-3.5769 1.0521-14.308 2.5249-23.986 2.1041-14.939 2.1041-17.884-0.4208-19.357-4.4185-2.7353-125.4-2.7353-134.66 0-3.9976 1.2624-16.832 2.7352-28.405 3.5768-11.572 0.6313-24.196 2.5249-28.194 3.9977-3.7873 1.6833-9.6786 2.9457-13.045 2.9457-3.1561 0-8.4162 1.052-11.783 2.3144-3.1561 1.2625-9.2578 3.1561-13.256 3.9977-6.9434 1.6833-11.152 2.9457-29.457 9.4682-15.57 5.681-44.185 18.095-57.02 24.617-19.357 10.099-19.357 10.52 1.4728 50.076 6.7329 12.624 40.608 48.183 51.76 54.074 24.407 12.835 39.556 19.568 43.554 19.568 2.5248 0 6.7329 1.2624 9.2578 2.5249 10.099 5.6809 71.958 5.8913 80.795 0.4208zm-422.07-102.89c4.6289-2.9457 10.52-6.3121 13.045-7.5746 2.5249-1.052 7.5746-3.7872 10.941-6.1017 3.5769-2.3144 8.2058-5.0497 10.52-6.3121 2.3144-1.2625 7.1537-3.9977 10.52-6.1018 3.5769-2.3144 10.099-6.1017 14.728-8.6266 4.6289-2.5248 12.414-7.3641 17.464-10.731s9.889-6.1017 10.941-6.1017c1.0521 0 5.8914-2.7353 10.941-6.1018 5.0497-3.3664 12.835-8.2057 17.464-10.731s11.362-6.1017 14.728-8.2058l6.3121-3.7873 0.6312-59.755c0.4209-37.242-0.4208-64.805-1.8936-73.431-1.2624-7.5745-2.9457-17.884-3.7873-23.144s-2.7352-11.572-3.9977-14.097c-1.4728-2.5249-2.5248-6.7329-2.5248-9.4682s-1.4729-6.733-3.1561-8.837c-1.6832-2.3144-3.1561-6.3121-3.1561-8.837 0-2.7353-0.8416-5.2601-1.8936-6.1017-1.2624-0.6312-4.6289-6.5226-7.5746-12.835-8.837-18.726-25.669-43.133-40.608-58.492-10.31-10.52-34.717-31.35-44.395-37.452-10.731-6.9434-46.92-24.828-50.287-24.828-1.8937 0-5.4706-1.4728-7.5746-3.156-2.3145-1.6833-6.5225-3.1561-9.2578-3.1561s-6.9434-1.052-9.4682-2.5248c-5.8913-2.9457-26.09-5.681-55.126-7.3642-21.882-1.052-37.873 0.4208-62.069 5.8913-5.2601 1.2624-12.203 2.7353-15.78 3.3665-3.3665 0.6312-8.2058 2.5248-10.52 3.9977-2.3144 1.6832-5.4705 2.9456-7.1538 2.9456-4.4185 0-33.454 14.308-41.66 20.199-3.5769 2.7352-7.3642 5.0497-7.9954 5.0497-2.7353 0-35.979 26.932-43.343 35.138-11.572 12.624-30.509 38.504-36.4 49.235-19.568 36.4-25.038 52.812-32.613 98.68-3.1561 19.568-2.9457 107.94 0.2104 111.09 1.8936 1.8937 20.83 2.5249 71.958 2.5249 42.923 0 72.8 1.052 78.06 2.3145 4.6289 1.2624 13.676 2.9456 19.988 3.7872 18.726 2.7353 36.4 7.785 56.388 16.201 3.7873 1.6832 8.6266 2.9457 10.731 2.9457 2.104 0 5.0497 1.4728 6.5226 3.156 1.4728 1.6833 3.3665 3.1561 4.4185 3.1561 4.2081 0 31.771 14.518 49.235 26.09 19.357 12.835 23.145 15.78 41.871 33.244 5.8913 5.4705 11.993 10.099 13.466 10.099 1.4728 0 6.5225-2.3144 11.151-5.2601zm-441.22-166.22c0-60.807-0.42081-70.275-3.5769-76.166-1.8936-3.7873-3.5769-8.4162-3.5769-10.52 0-5.8914-18.305-41.029-25.669-49.235-17.043-19.147-20.409-22.303-30.088-30.719-11.783-9.889-41.66-25.459-61.017-31.35-17.464-5.4705-78.481-5.4705-88.791-0.2104-3.7873 2.1041-8.4162 3.5769-10.52 3.7873-2.104 0-7.9954 2.3144-13.255 5.0497-5.2601 2.7353-12.203 6.3121-15.78 7.9954-3.3665 1.6832-12.414 7.785-19.778 13.676-7.3642 6.1017-14.308 10.941-15.149 10.941-1.052 0-2.9457 2.3145-4.4185 5.0497-1.4728 2.7353-6.1017 8.837-10.099 13.256-4.2081 4.4185-9.889 12.624-12.624 18.095-2.9457 5.6809-7.3642 14.097-9.889 18.936-2.5249 4.8393-4.6289 10.52-4.6289 12.624-0.21041 2.1041-1.4728 6.3122-3.1561 9.4682-2.9457 6.1018-4.8393 22.303-7.3642 62.49-2.3144 37.662-7.3642 34.717 58.282 34.927 29.667 0.2104 67.75 1.052 84.583 1.8936 28.194 1.4728 37.662 2.7353 66.277 8.6266 5.8913 1.052 14.728 2.9457 19.988 3.7873 5.2601 1.052 16.832 4.2081 25.88 7.3641 9.0474 2.9457 17.674 5.4706 19.357 5.4706s6.5225 1.4728 10.941 3.3664c4.4185 1.8937 11.151 4.6289 14.939 6.3122 13.887 5.8913 22.724 9.6786 27.773 12.414 11.993 6.3122 11.572 8.2058 11.362-67.329zm665.51 67.54c5.8914-2.9456 15.149-7.1537 28.405-12.624 3.7872-1.6833 10.52-4.4185 14.939-6.3122 4.4185-1.8936 9.889-3.3664 12.203-3.3664 2.3145 0 6.1018-1.0521 8.4162-2.3145 5.2601-2.7353 22.724-7.785 35.558-10.31 5.2601-1.052 14.308-2.9457 19.988-3.9977 28.615-5.8913 38.083-7.1538 66.277-8.6266 16.832-0.8416 54.705-1.6832 84.372-1.8936 45.447-0.2104 54.495-0.6313 56.599-3.3665 4.8393-5.8913 1.4728-73.01-4.6289-90.474-1.052-3.3665-2.7353-9.0474-3.5769-12.624-1.052-3.3665-3.5769-9.889-5.6809-14.097-2.1041-4.2081-6.3121-12.204-9.0474-17.464-2.7353-5.4705-8.2058-13.256-12.204-17.464-3.9977-4.4185-8.6266-10.31-10.31-13.466-1.6832-3.3665-3.7873-5.8914-4.8393-5.8914-0.8416 0-7.785-4.8393-15.149-10.941-7.3642-5.8913-16.201-11.993-19.778-13.676-3.3664-1.6833-10.52-5.2601-15.78-7.9954s-11.152-5.0497-13.256-5.0497c-2.1041-0.2104-6.733-1.6832-10.52-3.7873-10.31-5.2601-71.327-5.2601-88.791 0.2104-19.357 5.8913-49.235 21.461-61.017 31.35-9.6786 8.4162-13.045 11.572-30.088 30.719-7.3641 8.2058-25.669 43.343-25.669 49.235 0 2.104-1.6833 6.7329-3.5769 10.52-2.9457 5.6809-3.5769 16.622-4.4185 73.431-0.6312 36.61-0.4208 68.171 0.2104 69.854 1.6832 4.2081 3.5769 4.2081 11.362 0.4208zm-621.32-240.7c1.2624-3.5769 1.8936-4.6289 12.624-21.461 10.941-17.253 36.4-47.131 51.97-61.017 16.412-14.728 35.348-29.457 37.873-29.457 0.84162 0 4.4185-2.9457 7.9954-6.5225 6.5225-6.5226 6.5225-6.5226 6.5225-30.509 0-23.565 0-23.986-4.8393-23.986-4.4185 0-14.308 4.2081-22.513 9.4682-3.5769 2.3144-14.939 6.7329-24.197 9.4682-3.3665 1.052-13.466 4.2081-22.092 7.1537-8.6266 2.9457-18.095 5.4706-21.04 5.4706-2.9457 0-9.4682 1.2624-14.728 2.9456-12.414 3.9977-26.09 7.3642-37.873 9.6786-5.2601 0.8417-12.203 2.7353-15.36 3.9977-3.3665 1.2625-8.6266 2.3145-11.783 2.3145-3.3665 0-10.31 1.8936-15.78 4.2081l-9.6786 4.4185v45.868l7.5746 5.8913c18.936 14.728 38.504 33.034 49.235 46.079 6.3121 7.785 13.255 15.991 15.149 17.884 4.2081 4.4185 9.0474 3.3665 10.941-1.8936zm584.29-6.1018c9.2578-13.045 35.558-39.135 51.339-51.128l12.624-9.6786 0.6312-23.565 0.6312-23.355-7.9953-3.5769c-4.4185-1.8937-12.204-4.2081-17.464-5.0497-10.731-1.6833-26.932-5.4705-37.873-9.0474-3.9977-1.2624-11.152-2.9457-15.78-3.7873s-12.414-2.5249-17.253-3.7873c-5.0497-1.2624-13.045-3.3665-17.884-4.4185-15.991-3.9977-22.724-6.1017-44.816-14.097-4.6289-1.6832-9.8891-3.9977-11.572-5.0497-12.204-6.733-26.09-12.624-28.615-11.572-2.3145 0.8417-2.9457 6.5226-2.9457 25.249v23.986l6.3122 5.0497c3.3664 2.5249 12.414 9.0474 20.199 14.308 18.095 12.204 44.606 37.242 59.334 55.757 6.5225 8.2057 12.414 15.149 13.256 15.78 0.6312 0.6312 6.3121 9.2578 12.414 19.568 6.9433 11.572 12.203 18.305 14.518 18.305 2.104 0 6.9433-4.4185 10.941-9.889zm-836.99-94.261c10.941-4.6289 66.909-4.4185 80.375 0.2104 15.36 5.0497 16.412 3.3664 15.36-28.615-0.84161-24.407-1.2624-27.353-7.5746-40.187-3.7873-7.5746-6.733-14.939-6.733-16.201s-1.2624-4.8393-2.9457-8.2058c-1.6832-3.156-4.4185-9.2578-6.1017-13.256s-4.6289-10.731-6.3121-14.728c-1.6832-3.9977-7.785-18.095-13.466-31.35-5.4705-13.256-10.941-23.776-12.203-23.565-2.104 0.6312-6.5225 8.2058-12.624 22.303-2.104 4.6289-5.0497 11.151-6.5225 14.308-1.6832 3.3665-2.9457 7.5746-2.9457 9.6786 0 1.8937-0.84162 4.4185-1.8936 5.6809-1.052 1.0521-3.9977 7.1538-6.5225 13.466s-5.8913 14.728-7.5746 18.516c-20.409 47.762-19.778 45.237-19.778 67.75 0 15.991 0.84162 21.461 3.3665 23.986 3.9977 4.208 4.8393 4.208 14.097 0.2104zm991.43 0c12.204-4.4185 69.854-4.4185 80.375 0 9.2578 3.9976 14.939 2.5248 16.622-4.2081 0.6312-2.7353 0.8416-13.887 0.4208-24.617-0.8416-19.778-2.7352-26.09-19.988-64.805-1.8936-3.9977-4.4185-10.099-5.8913-13.676-1.4729-3.3665-3.9977-9.6786-5.681-13.676-1.8936-3.9977-6.3121-14.939-10.099-24.196-8.6266-21.251-14.097-31.771-16.201-30.93-2.5249 1.2624-10.31 17.253-18.516 38.294-2.1041 5.2602-5.0497 12.624-6.733 16.201-1.4728 3.7873-4.2081 9.889-5.6809 13.676-3.3665 8.2058-6.9434 15.991-16.201 37.452-6.1017 14.308-6.9433 18.095-7.7849 41.66-0.6312 18.516-0.2104 26.721 1.6832 28.826 3.1561 3.7872 3.1561 3.7872 13.676 0zm-522.86-59.755c6.3121-1.0521 14.308-2.9457 17.464-4.2081 9.2578-3.5769 92.999-2.9457 103.52 0.8416 4.6289 1.6832 11.362 3.156 15.149 3.156 3.5769 0 9.2578 1.0521 12.414 2.1041 10.52 3.9977 11.362 1.052 11.362-38.714-0.2104-33.875-0.4208-36.61-5.2601-46.499-2.9456-5.6809-5.2601-11.151-5.2601-11.993 0-1.0521-2.9456-7.9954-6.5225-15.78-10.31-22.513-13.045-28.615-15.78-35.348-1.4728-3.3664-5.4705-12.414-9.0474-19.988s-6.5226-15.36-6.5226-17.043c0-1.8936-1.4728-4.6289-3.1561-6.1017-1.6832-1.4728-3.1561-3.7873-3.1561-5.2601 0-1.6833-1.4728-5.4705-3.1561-8.837-4.8393-9.2578-15.78-34.086-15.78-35.769 0-1.2624-11.362-26.511-14.518-32.192-2.7353-5.0497-9.2578-3.7873-10.731 2.104-0.84162 2.9457-3.9977 10.941-7.1538 17.884-6.733 15.149-10.731 23.986-14.728 33.034-1.6832 3.7872-5.8913 13.045-9.4682 20.62s-6.5225 14.728-6.5225 15.991c0 1.2624-2.3144 6.7329-5.2601 12.203-2.7353 5.2601-7.1538 14.728-9.6786 20.83-2.5249 5.8913-6.3121 14.728-8.2058 19.357-5.2601 11.783-14.518 32.402-17.674 39.977-1.4728 3.5769-4.4185 9.889-6.3121 14.308-2.7353 6.3121-3.3665 14.939-3.3665 42.291 0 18.726 0.63121 34.927 1.4728 35.769 1.052 0.8416 4.4185 1.052 7.9954 0.4208 3.3665-0.6312 11.572-2.104 17.884-3.156zm-278.79-35.979c3.1561-1.2625 7.785-2.1041 10.52-2.1041 2.5248 0 7.5746-1.4728 10.731-3.1561 3.3665-1.6832 9.0474-3.156 12.835-3.156 3.5769 0 9.2578-1.052 12.624-2.3145 3.1561-1.4728 9.6786-3.156 14.308-3.9977 23.355-4.2081 45.658-12.203 44.395-15.78-0.21041-1.052-4.4185-2.7353-9.2578-3.5769s-10.52-2.5248-12.835-3.5769c-2.3144-1.2624-6.7329-2.3144-9.889-2.3144-2.9457 0-9.889-1.2624-15.36-2.9457-14.728-4.6289-27.563-7.7849-39.135-9.6786-5.6809-0.8416-13.255-2.5248-16.832-3.7873-16.201-5.6809-27.773-8.837-31.14-8.837-2.3144 0-6.5225-1.2624-9.4682-2.9456-24.197-12.414-30.509-11.152-22.724 4.4185 1.6832 3.156 4.6289 9.4682 6.3121 13.676 1.8936 4.4185 5.0497 11.572 6.9434 15.78 5.4705 12.624 8.6266 20.199 11.362 27.563 4.2081 11.572 6.3121 12.624 19.568 10.731 6.3121-1.052 14.097-2.9456 17.043-3.9976zm728-4.8393c1.8936-4.8394 4.8393-11.572 6.3121-15.149 1.4729-3.3665 5.681-13.887 9.4682-23.144 3.7873-9.2578 8.4162-19.988 10.1-23.565 2.5248-4.8393 2.7352-7.5746 1.2624-9.0474-2.3145-2.3144-2.7353-2.3144-24.617 7.1538-4.4185 1.8936-10.099 3.3664-12.624 3.3664-2.5249 0.2104-6.9434 1.4729-9.889 3.1561-2.9457 1.6832-7.9954 2.9457-11.152 3.1561-3.3665 0-7.9954 1.052-10.52 2.5248-2.5249 1.2625-8.837 3.1561-14.097 3.9977-5.2601 0.6312-14.097 2.5249-19.988 3.9977-5.6809 1.2624-16.201 3.9977-23.144 5.6809-6.9433 1.6833-17.253 4.4185-22.934 6.1018-5.4705 1.6832-12.414 2.9456-15.149 2.9456-2.7353 0-5.0497 1.2625-5.0497 2.7353 0 4.2081 20.83 11.783 45.237 16.201 4.6289 0.8417 11.151 2.5249 14.308 3.9977 3.3665 1.2625 9.0474 2.3145 12.624 2.3145 3.7872 0 9.4682 1.4728 12.835 3.156 3.1561 1.6833 7.9954 3.1561 10.731 3.1561 2.5248 0 7.5745 1.052 11.151 2.3145 7.9954 2.7352 25.88 5.6809 29.036 4.6289 1.2624-0.4208 3.9976-4.8393 6.1017-9.6786zm-991.43 0c2.104-4.8394 5.2601-11.572 6.9434-14.728 1.6832-3.3664 2.9457-7.5745 2.9457-9.6786 0-1.8936 0.84162-4.4185 1.8936-5.4705 1.052-1.2624 3.9977-7.3642 6.5225-13.676 2.5249-6.3121 5.8913-14.308 7.3642-17.884 1.6832-3.3665 7.1538-17.253 12.624-30.509 14.308-35.138 19.988-48.603 24.407-57.44 1.052-1.8937 3.3665-7.9954 5.2601-13.256l3.1561-9.4682-8.4162-11.362c-4.8393-6.3121-8.6266-12.414-8.6266-13.676 0-1.052-0.84162-2.104-1.8936-2.104-1.052 0-2.7353-1.8937-3.3665-4.4185-0.84162-2.5249-3.5769-7.5746-6.3121-11.572-4.6289-6.7329-9.6786-16.832-17.043-33.875-1.6832-3.7873-4.2081-10.099-5.8913-13.676-1.6832-3.7873-4.6289-12.204-6.5225-18.516-2.104-6.3122-4.6289-14.308-5.6809-17.884-1.2624-3.3665-2.9457-12.414-3.9977-19.988-1.052-7.5746-2.7353-16.412-3.9977-19.778-1.052-3.3665-2.104-17.674-2.104-31.982 0-14.097-0.84162-28.194-2.104-31.35l-2.104-5.2601-54.074 0.4208-54.284 0.6312-2.104 177.16-6.1017 7.785c-6.5225 8.6266-19.778 15.78-29.246 15.991-7.785 0-19.988-6.3121-27.773-14.728l-6.3121-6.5225-2.104-179.69h-73.642v122.03c0.2104 110.46 0.42081 122.88 3.7873 130.24 1.8936 4.4185 3.5769 10.31 3.5769 12.835 0 2.7352 1.2624 7.5745 2.9457 10.941 1.6832 3.1561 5.8913 11.993 9.6786 19.357 15.36 31.14 46.71 62.701 78.271 78.691 10.731 5.4706 20.83 9.8891 22.303 9.8891 1.6832 0 5.8913 1.2624 9.4682 2.9456 7.3642 2.9457 23.145 7.3642 36.19 9.6786 4.6289 0.8417 11.151 2.5249 14.308 3.9977 3.3665 1.2625 9.0474 2.3145 12.624 2.3145 3.7873 0 9.4682 1.4728 12.835 3.156 3.1561 1.6833 7.9954 3.1561 10.52 3.1561 2.3144 0 8.6266 1.4728 13.887 2.9457 5.2601 1.6832 13.676 3.156 18.936 3.156 9.2578 0.2105 9.6786-0.2104 13.255-8.8369zm1250.2 5.8913c4.6289-1.6833 10.941-3.1561 13.887-3.1561 3.156 0 8.4162-1.4728 11.572-3.1561 3.3665-1.6832 9.0474-3.156 12.835-3.156 3.5769 0 9.2578-1.052 12.624-2.3145 3.1561-1.4728 9.6786-3.156 14.308-3.9977 13.045-2.3144 28.825-6.7329 36.19-9.6786 3.5769-1.6832 7.785-2.9456 9.4682-2.9456 1.4728 0 11.572-4.4185 22.303-9.8891 31.561-15.991 62.911-47.551 78.27-78.691 3.7873-7.3641 7.9954-16.201 9.6786-19.357 1.6833-3.3665 2.9457-8.2058 2.9457-10.941 0-2.5249 1.6832-8.4162 3.5769-12.835 3.3664-7.3642 3.5768-19.778 3.7872-130.24v-122.03h-73.642l-2.104 179.69-6.3122 6.5225c-7.7849 8.4162-19.988 14.728-27.773 14.728-9.4682-0.2104-22.724-7.3641-29.246-15.991l-6.1017-7.785-1.0521-88.58-1.052-88.58h-111.51l-1.2625 29.457c-1.6832 38.083-5.6809 62.911-14.939 90.474-1.052 3.5769-2.9457 9.4682-3.7873 13.466-1.052 3.7873-2.7352 7.9953-3.9977 9.2578-1.2624 1.2624-2.3144 3.7873-2.3144 5.8913 0 1.8936-4.6289 12.414-10.31 23.565-13.887 26.721-14.728 27.984-24.407 41.45-16.622 22.513-15.991 19.988-8.837 36.821 3.5769 7.9954 9.0474 20.62 12.414 27.984 3.1561 7.1538 5.8913 13.887 5.8913 14.939s1.2625 4.6289 2.9457 7.9953c1.4728 3.1561 4.4185 9.4683 6.3121 13.887 1.8937 4.208 4.6289 10.941 6.3122 14.728 1.6832 3.5769 4.6289 10.941 6.7329 16.201 1.8937 5.2601 6.3122 15.36 9.6786 22.724 3.1561 7.1538 5.8914 13.887 5.8914 14.939s1.2624 4.6289 2.9456 7.9953c1.6833 3.1561 4.6289 9.889 6.733 14.939 3.5769 8.6265 3.7873 8.837 13.256 8.837 5.2601-0.2105 13.466-1.4729 18.095-3.1561z"/>
  <path d="m811.74 6662.8c-15.991-1.6832-29.036-22.303-25.669-41.239 1.4728-9.2578 10.099-22.513 14.518-22.513 1.4728 0 3.7873-1.4728 5.2601-3.1561 4.2081-5.0497 24.197-4.2081 33.034 1.2624 22.092 13.676 23.565 44.185 2.5248 60.386-5.4705 4.4185-17.464 6.3121-29.667 5.2601z"/>
  <path d="m1059 6662.8c-4.6289-0.6312-9.889-3.9977-16.412-10.31-9.4682-9.4682-9.4682-9.6787-9.4682-23.986v-14.518l10.52-10.731c10.52-10.31 10.941-10.52 23.144-10.52 9.6786 0 14.097 1.052 20.83 5.6809 4.8394 3.156 8.6266 6.5225 8.6266 7.5745 0 1.2625 1.4729 3.7873 3.3665 5.8914 2.3145 2.5248 3.3665 7.7849 3.3665 15.991 0 25.249-16.412 38.083-43.975 34.927z"/>
  <path d="m885.17 6537c-15.57-5.6809-22.513-16.412-22.513-34.296 0-13.045 0.2104-13.466 10.52-24.617 17.253-18.095 44.606-29.457 70.486-29.457 31.982 0 67.33 18.516 79.112 41.239 5.2601 10.52 5.0497 17.884-0.6312 28.615-5.8913 10.731-12.624 16.201-24.407 19.568-10.52 3.3664-21.461 0.6312-35.348-8.837-12.203-8.2058-25.459-8.2058-37.873 0.2104-8.837 6.1017-21.672 10.941-28.194 10.52-1.6832 0-6.7329-1.4728-11.151-2.9457z"/>
  <path d="m929.99 5697c-5.6809-2.104-14.939-11.993-19.357-20.409-5.4705-10.52-4.2081-21.251 3.7873-32.402 7.9954-11.152 15.78-15.149 29.457-15.149 17.253 0 28.825 8.6266 34.506 25.88 4.8393 14.939-5.4705 35.979-20.409 41.66-5.4705 2.104-22.724 2.3145-27.984 0.4208z"/>
 </g>
</svg>
